<svg width="678" height="616" viewBox="0 0 678 616" fill="none" xmlns="http://www.w3.org/2000/svg">
<g clip-path="url(#clip0_1_211)">
<path d="M211.56 163.58C229.056 163.58 243.24 143.366 243.24 118.43C243.24 93.4944 229.056 73.28 211.56 73.28C194.064 73.28 179.88 93.4944 179.88 118.43C179.88 143.366 194.064 163.58 211.56 163.58Z" fill="white"/>
<path d="M211.56 163.58C229.056 163.58 243.24 143.366 243.24 118.43C243.24 93.4944 229.056 73.28 211.56 73.28C194.064 73.28 179.88 93.4944 179.88 118.43C179.88 143.366 194.064 163.58 211.56 163.58Z" stroke="black" stroke-width="8.31" stroke-miterlimit="10"/>
<path d="M238.31 94.25C233.46 87.68 226.91 83.63 219.69 83.63C204.74 83.63 192.63 100.9 192.63 122.2C192.63 143.5 204.75 160.77 219.69 160.77C220.89 160.77 222.06 160.62 223.22 160.4C234.94 153.78 243.24 137.49 243.24 118.43C243.24 109.53 241.43 101.25 238.31 94.25Z" fill="black"/>
<path d="M210.23 118.7C214.615 118.7 218.17 113.636 218.17 107.39C218.17 101.144 214.615 96.0801 210.23 96.0801C205.845 96.0801 202.29 101.144 202.29 107.39C202.29 113.636 205.845 118.7 210.23 118.7Z" fill="#FBFFFA"/>
<path d="M552.62 369.39C571.52 364.93 590.46 358.64 601.47 340.59C613.14 321.45 603.97 296.32 587.33 283.79C584.47 281.63 573.22 272.87 569.57 275.94C579.93 267.25 590.35 258.49 598.95 247.94C609.29 235.25 619.02 217.53 615.39 200.32C611.09 179.93 591.45 171.39 573.02 171.94C569.64 172.04 558.18 171.56 556.26 175.11C567.91 153.61 583.5 120.57 567.34 98.39C549.52 73.94 514.06 72.17 487.88 84.8L435.15 229.24L552.62 369.4V369.39Z" fill="#00897D"/>
<path d="M655.02 498.81C645.93 480.65 634.91 463.56 622.6 447.59C612.08 433.94 600.61 421.08 588.41 409.03C579.77 400.51 570.77 392.37 561.38 384.75C560.69 384.19 550.31 376.95 550.47 376.36C562.78 330.93 569.66 279.32 560.38 218.12C540.22 85.09 438.08 59.71 438.08 59.71C353.74 -65.38 290.08 70.07 290.08 70.07C228.22 -17.21 211.82 115.86 211.82 115.86C158.13 149.29 92.46 162.48 71.55 166.01C69.82 166.24 68.11 166.51 66.41 166.83C65.37 166.98 64.81 167.06 64.81 167.06L64.86 167.14C44.09 171.41 26.55 182.59 16.23 207.22C4.76999 234.58 0.44999 276.89 21.47 300.82C30.03 310.57 41.87 313.72 53.86 316.2C57.51 316.95 61.16 317.62 64.81 318.24V318.26C64.81 318.26 86.95 351.19 151.72 349.93C153.28 349.9 154.9 349.93 156.58 350L156.26 355.54C156.26 355.54 175.31 401.77 233.08 421.36C233.08 421.36 223.65 504.72 235.53 568.91C235.53 568.91 453.84 674.67 671.13 538.94C668.79 526.87 661.45 511.68 655 498.82L655.02 498.81Z" fill="#A7C400"/>
<path d="M655.02 498.81C645.93 480.65 634.91 463.56 622.6 447.59C612.08 433.94 600.61 421.08 588.41 409.03C579.77 400.51 570.77 392.37 561.38 384.75C560.69 384.19 550.31 376.95 550.47 376.36C562.78 330.93 569.66 279.32 560.38 218.12C559.67 213.43 558.85 208.9 557.94 204.47L551.26 201.75C536.89 90.1599 448.97 66.4899 448.97 66.4899C448.04 65.0799 447.11 63.7099 446.18 62.3699C441.09 60.4599 438.07 59.7099 438.07 59.7099C428.85 46.0299 419.88 35.4699 411.21 27.5099C406.95 25.0799 402.78 23.3399 398.72 22.1899C420.66 50.2299 435.36 90.8999 400.8 138.38C400.8 138.38 503.52 152.41 454.06 288.21C454.06 288.21 404.03 338.3 345.76 358.71C345.76 358.71 422.69 332.75 411.64 407.43C411.64 407.43 518.28 449.59 534.63 593.13C579.08 584.39 625.32 567.56 671.15 538.93C669.66 527.99 661.47 511.67 655.02 498.81Z" fill="#00A82A"/>
<path d="M154.28 349.93C155.02 349.94 155.76 349.96 156.52 350C155.76 349.97 155.01 349.95 154.28 349.93Z" fill="#FF9C00"/>
<path d="M605.97 572.06L605.57 568.9C578.51 398.56 478.98 373.55 478.98 373.55L497.86 229.22L492.34 237.28C367.95 428.86 221.42 352.82 156.58 350L156.26 355.53C156.26 355.53 175.31 401.76 233.08 421.35C233.08 421.35 223.65 504.71 235.53 568.9C235.53 568.9 410.81 650.08 605.96 572.06H605.97Z" fill="#FF9C00"/>
<path d="M153.91 349.93C153.17 349.93 152.45 349.93 151.73 349.93C152.44 349.92 153.17 349.92 153.91 349.93Z" fill="#FF9C00"/>
<path d="M124.41 348.28C127.66 348.77 131.06 349.16 134.62 349.44C131.06 349.16 127.66 348.76 124.41 348.28Z" fill="#FF9C00"/>
<path d="M605.57 568.9C578.51 398.56 478.98 373.55 478.98 373.55L497.86 229.22L492.34 237.28C479.9 256.44 467.23 272.92 454.45 287.07C454.31 287.45 454.19 287.82 454.05 288.2C454.05 288.2 452.12 290.13 448.6 293.37C415.32 328.28 381.36 347.8 348.54 357.87C362.23 354.08 421.42 341.3 411.63 407.42C411.63 407.42 518.26 449.58 534.62 593.1C543.18 591.42 551.8 589.45 560.47 587.14C560.63 587.1 560.79 587.05 560.96 587.01C563.72 586.27 566.48 585.5 569.25 584.7C569.84 584.53 570.43 584.34 571.02 584.17C573.36 583.48 575.71 582.77 578.06 582.03C578.85 581.78 579.64 581.52 580.43 581.26C582.58 580.56 584.74 579.86 586.9 579.12C587.8 578.81 588.71 578.49 589.61 578.17C591.66 577.45 593.72 576.72 595.77 575.97C596.74 575.61 597.72 575.24 598.69 574.87C600.68 574.12 602.68 573.35 604.67 572.56C605.1 572.39 605.54 572.21 605.97 572.04L605.58 568.9H605.57Z" fill="#FF7200"/>
<path d="M504.18 218.12C471.55 128.13 400.8 138.38 400.8 138.38C400.8 138.38 502.92 152.34 454.47 287.05L504.18 218.12Z" fill="#F09625"/>
<path d="M126.92 244.06C126.09 258.37 119.55 270.15 112.31 270.36C105.08 270.57 99.89 259.14 100.72 244.82C101.55 230.51 108.09 218.73 115.33 218.52C122.57 218.31 127.75 229.74 126.92 244.06Z" fill="#38A23A"/>
<path d="M65.23 239.76C64.53 254.04 58.74 265.76 52.3 265.95C45.86 266.14 41.21 254.72 41.91 240.44C42.61 226.16 48.4 214.44 54.84 214.25C61.28 214.06 65.93 225.48 65.23 239.76Z" fill="#38A23A"/>
<path d="M388.19 224.86C377.41 203.88 364.61 196.95 355.35 194.94C348.69 193.5 342.2 198.01 341.04 204.72L333.53 247.99L388.2 227.36" fill="#E1E4E5"/>
<path d="M272.36 278.21C272.36 278.21 276.86 297.73 299.83 310.69C306.37 314.38 314.6 310.76 316.43 303.48C319.07 292.96 321.7 277.34 319.53 261.77L318.29 255.37L272.36 278.21Z" fill="#E1E4E5"/>
<path d="M632.04 460.87L635.22 459.26C641.67 436.53 648.28 402.59 625.49 387.11C608.49 375.57 583.86 379.17 565.33 384.02L565.94 388.1C576.71 396.36 604.88 420.08 632.04 460.87Z" fill="#00897D"/>
<path d="M487.89 84.78C514.06 72.15 549.52 73.92 567.35 98.37C583.51 120.55 567.92 153.59 556.27 175.09C558.19 171.55 569.65 172.02 573.03 171.92C591.46 171.38 611.1 179.91 615.4 200.3C619.03 217.51 609.31 235.23 598.96 247.92C590.36 258.47 579.93 267.23 569.58 275.92C573.23 272.86 584.47 281.62 587.34 283.77C603.98 296.3 613.16 321.43 601.48 340.57C590.47 358.63 571.53 364.92 552.63 369.37" stroke="black" stroke-width="9.35" stroke-linecap="round" stroke-linejoin="round"/>
<path d="M333.77 247.9L347.68 242.65L355.85 195.06C355.68 195.02 355.51 194.98 355.35 194.94C348.69 193.5 342.2 198.01 341.04 204.72L333.58 247.7L333.78 247.9H333.77Z" fill="#FBFFF5"/>
<path d="M565.34 384.02C583.87 379.17 608.5 375.57 625.5 387.11C648.29 402.58 641.68 436.52 635.23 459.26" stroke="black" stroke-width="9.35" stroke-linecap="round" stroke-linejoin="round"/>
<path d="M435.16 132.54C435.16 132.54 461.56 134.81 466.58 176.17" stroke="black" stroke-width="9.35" stroke-linecap="round" stroke-linejoin="round"/>
<path d="M126.92 244.06C126.09 258.37 119.55 270.15 112.31 270.36C105.08 270.57 99.89 259.14 100.72 244.82C101.55 230.51 108.09 218.73 115.33 218.52C122.57 218.31 127.75 229.74 126.92 244.06Z" stroke="black" stroke-width="9.35" stroke-linecap="round" stroke-linejoin="round"/>
<path d="M65.23 239.76C64.53 254.04 58.74 265.76 52.3 265.95C45.86 266.14 41.21 254.72 41.91 240.44C42.61 226.16 48.4 214.44 54.84 214.25C61.28 214.06 65.93 225.48 65.23 239.76Z" stroke="black" stroke-width="9.35" stroke-linecap="round" stroke-linejoin="round"/>
<path d="M64.81 318.27C64.81 318.27 86.95 351.2 151.73 349.94C216.5 348.67 377.83 441.25 508.6 210.46" stroke="black" stroke-width="9.35" stroke-linecap="round" stroke-linejoin="round"/>
<path d="M333.52 247.99L341.03 204.72C342.2 198.01 348.69 193.5 355.34 194.94C364.6 196.95 377.4 203.87 388.18 224.86" stroke="black" stroke-width="9.35" stroke-linecap="round" stroke-linejoin="round"/>
<path d="M156.27 355.54C156.27 355.54 200.9 463.93 360.86 419.12" stroke="black" stroke-width="9.35" stroke-linecap="round" stroke-linejoin="round"/>
<path d="M233.09 421.36C233.09 421.36 223.66 504.71 235.54 568.9C236.19 572.42 258.86 578.91 261.7 579.97C285.55 588.85 310.28 595.47 335.28 600.2C417 615.67 502.85 610.11 581.62 583.19C613.48 572.3 644.2 559.39 671.15 538.94C666.77 525.18 661.47 511.68 655.03 498.82C645.94 480.66 634.92 463.57 622.61 447.6C612.09 433.95 600.62 421.09 588.42 409.04C579.78 400.52 570.78 392.38 561.39 384.76C560.7 384.2 550.32 376.96 550.48 376.37C562.79 330.94 569.67 279.33 560.39 218.13C540.23 85.1 438.09 59.72 438.09 59.72C353.75 -65.37 290.09 70.08 290.09 70.08C228.23 -17.2 211.83 115.87 211.83 115.87C147.05 156.21 64.83 167.07 64.83 167.07" stroke="black" stroke-width="9.35" stroke-linecap="round" stroke-linejoin="round"/>
<path d="M452.74 393.47L508.92 352.55" stroke="black" stroke-width="9.35" stroke-linecap="round" stroke-linejoin="round"/>
<path d="M497.86 229.22L478.98 373.55C478.98 373.55 578.51 398.56 605.57 568.9" stroke="black" stroke-width="9.35" stroke-linecap="round" stroke-linejoin="round"/>
<path d="M444.32 345.37L426 365.7" stroke="black" stroke-width="9.35" stroke-linecap="round" stroke-linejoin="round"/>
<path d="M342 162.31C366.936 162.31 387.15 142.096 387.15 117.16C387.15 92.2244 366.936 72.01 342 72.01C317.064 72.01 296.85 92.2244 296.85 117.16C296.85 142.096 317.064 162.31 342 162.31Z" fill="white"/>
<path d="M342 162.31C366.936 162.31 387.15 142.096 387.15 117.16C387.15 92.2244 366.936 72.01 342 72.01C317.064 72.01 296.85 92.2244 296.85 117.16C296.85 142.096 317.064 162.31 342 162.31Z" stroke="black" stroke-width="8.31" stroke-miterlimit="10"/>
<path d="M380.13 92.98C373.21 86.41 363.89 82.36 353.6 82.36C332.3 82.36 315.03 99.63 315.03 120.93C315.03 142.23 332.3 159.5 353.6 159.5C355.31 159.5 356.98 159.35 358.63 159.13C375.33 152.51 387.15 136.22 387.15 117.16C387.15 108.26 384.57 99.98 380.12 92.98H380.13Z" fill="black"/>
<path d="M340.12 117.43C346.366 117.43 351.43 112.366 351.43 106.12C351.43 99.8737 346.366 94.8101 340.12 94.8101C333.874 94.8101 328.81 99.8737 328.81 106.12C328.81 112.366 333.874 117.43 340.12 117.43Z" fill="#FBFFFA"/>
<path d="M479.601 136.695C482.764 134.619 482.333 128.373 478.639 122.745C474.944 117.117 469.386 114.237 466.223 116.313C463.06 118.389 463.491 124.634 467.185 130.263C470.88 135.891 476.438 138.771 479.601 136.695Z" fill="#AEC125"/>
<path d="M481.955 112.838C483.589 111.765 483.369 108.541 481.463 105.637C479.556 102.733 476.686 101.248 475.052 102.321C473.417 103.394 473.638 106.618 475.544 109.522C477.45 112.426 480.32 113.911 481.955 112.838Z" fill="#AEC125"/>
<path d="M538.882 296.294C541.372 291.026 540.99 285.621 538.029 284.222C535.068 282.822 530.649 285.958 528.159 291.226C525.669 296.493 526.051 301.898 529.012 303.298C531.973 304.698 536.392 301.562 538.882 296.294Z" fill="#AEC125"/>
<path d="M518.992 319.367C520.278 316.646 520.082 313.854 518.555 313.132C517.027 312.41 514.745 314.03 513.459 316.752C512.173 319.473 512.368 322.264 513.896 322.987C515.424 323.709 517.706 322.088 518.992 319.367Z" fill="#AEC125"/>
<path d="M505.99 145.216C507.624 144.143 507.404 140.919 505.498 138.015C503.592 135.111 500.721 133.626 499.087 134.699C497.452 135.772 497.673 138.996 499.579 141.9C501.485 144.804 504.356 146.289 505.99 145.216Z" fill="#AEC125"/>
<path d="M309.91 301.44C293.02 291.92 286.12 278.85 283.65 272.59L272.36 278.2C272.36 278.2 276.86 297.72 299.83 310.68C306.37 314.37 314.6 310.75 316.43 303.47C316.48 303.26 316.54 303.04 316.59 302.82C314.37 303.05 312.05 302.64 309.91 301.43V301.44Z" fill="#FBFFF5"/>
<path d="M272.36 278.21C272.36 278.21 276.86 297.73 299.83 310.69C306.37 314.38 314.6 310.76 316.43 303.48C319.07 292.96 321.7 277.34 319.53 261.77" stroke="black" stroke-width="9.35" stroke-linecap="round" stroke-linejoin="round"/>
<path d="M422.69 188.85C417.92 216.72 389.21 225.86 389.21 225.86C345.08 244.16 300.39 261.9 257.5 283.2C228.29 297.71 199.6 315.41 167.81 323.19C147.96 328.05 130.05 326 110.16 323.98C91.31 322.07 72.55 320.06 53.86 316.21C41.86 313.74 30.03 310.58 21.47 300.83C0.44999 276.9 4.76999 234.59 16.23 207.23C34.17 164.4 73.93 162.21 114.57 166.36C149.47 169.92 184 186.97 187.51 227.01C187.82 230.53 187.03 237.76 187.22 244.55" stroke="black" stroke-width="9.35" stroke-linecap="round" stroke-linejoin="round"/>
<path d="M365.72 2C391.32 2 416.61 20.03 440.98 55.67C446.77 57.38 465.72 63.8 487.45 79.84C498.18 74.94 509.92 72.38 521.42 72.38C524.76 72.38 528.09 72.6 531.37 73.03C548.25 75.29 562 83.1 571.12 95.61C586.04 116.08 577.29 143.59 565.52 167.41C567.37 167.3 569.31 167.27 571.28 167.26C571.92 167.26 572.47 167.26 572.89 167.24C573.49 167.22 574.08 167.21 574.67 167.21C584.64 167.21 594.25 169.68 601.9 174.23C611.46 179.92 617.71 188.6 619.97 199.33C622.28 210.28 621.14 228.11 602.58 250.87C595.79 259.2 587.94 266.42 580 273.23C583.15 274.92 586.46 277.25 589.76 279.75L590.15 280.04C607.86 293.37 618.75 321.24 605.47 343.01C593.69 362.31 574.07 368.97 556.1 373.35C555.97 373.84 555.85 374.32 555.72 374.81C557.77 376.39 561 378.7 562.3 379.64C562.52 379.8 562.71 379.93 562.88 380.06C563.27 379.82 563.68 379.61 564.15 379.49C576.32 376.31 587.11 374.71 596.63 374.71C609.32 374.71 619.75 377.55 628.12 383.23C656.24 402.32 643.81 446.13 639.72 460.52C639.55 461.13 639.25 461.68 638.87 462.15C646.56 473.53 653.38 485.09 659.2 496.71C665.41 509.12 670.93 522.84 675.6 537.51C676.2 539.4 675.55 541.46 673.97 542.65C644.59 564.95 611.56 577.89 583.13 587.61C532.9 604.78 479.89 613.45 426.53 613.45H426.51C395.78 613.45 364.93 610.58 334.4 604.8C308.17 599.83 283.15 592.96 260.06 584.36C259.66 584.21 258.42 583.82 257.11 583.4C235.78 576.61 231.71 573.93 230.94 569.76C220.49 513.29 226.43 441.48 228.07 424.55C216.54 420.32 205.79 414.8 195.92 407.99C163.99 385.96 152.42 358.49 151.94 357.33C151.57 356.44 151.5 355.5 151.68 354.62C150.43 354.64 149.19 354.66 147.97 354.66C91.8 354.66 67.69 329.42 62.17 322.55C59.08 322.01 56 321.43 52.91 320.8C40.46 318.23 27.51 314.82 17.95 303.93C-4.05001 278.88 -0.600008 235.31 11.91 205.43C20.7 184.44 34.96 171.12 55.49 164.72C57.97 163.95 60.5 163.3 63.06 162.75C63.42 162.61 63.79 162.49 64.18 162.44C64.25 162.44 64.91 162.34 66.09 162.16C67.48 161.91 68.87 161.68 70.27 161.48C86.36 158.76 131.83 149.8 176.6 129.34C176.02 125.83 175.71 122.19 175.71 118.44C175.71 91.25 191.79 69.14 211.55 69.14C213.84 69.14 216.08 69.45 218.25 70.02C225.67 50.58 235.12 39.29 246.42 36.45C248.36 35.96 250.31 35.72 252.28 35.72C263.86 35.72 276.08 44.16 289.38 61.3C298.46 44.97 324.32 5.05 361.51 2.18C362.91 2.07 364.32 2.02 365.72 2.02M365.72 0C364.27 0 362.8 0.06 361.36 0.17C325.18 2.96 299.67 39.46 289.11 57.71C276.07 41.56 264.01 33.7 252.29 33.7C250.17 33.7 248.03 33.97 245.94 34.49C234.32 37.42 224.6 48.58 217.03 67.67C215.21 67.31 213.38 67.13 211.56 67.13C190.7 67.13 173.72 90.14 173.72 118.43C173.72 121.66 173.95 124.92 174.41 128.14C130.73 147.87 86.94 156.63 69.98 159.5C68.63 159.69 67.25 159.91 65.77 160.18C64.64 160.35 64 160.44 63.93 160.45C63.46 160.51 62.99 160.63 62.49 160.82C59.85 161.39 57.29 162.06 54.9 162.81C33.77 169.4 19.11 183.09 10.07 204.66C-2.68001 235.09 -6.12001 279.55 16.45 305.25C26.42 316.6 39.73 320.12 52.51 322.76C55.06 323.29 57.81 323.81 61.1 324.39C68.02 332.71 92.78 356.66 147.98 356.66C148.54 356.66 149.11 356.66 149.68 356.66C149.76 357.15 149.9 357.63 150.09 358.1C150.58 359.28 162.38 387.29 194.78 409.65C204.3 416.22 214.77 421.68 225.93 425.9C223.88 447.78 218.87 515.57 228.97 570.14C229.98 575.63 235.39 578.61 256.5 585.32L256.58 585.35C257.78 585.73 259.01 586.12 259.36 586.25C282.56 594.89 307.68 601.8 334.02 606.78C364.48 612.55 395.59 615.47 426.5 615.47C480.49 615.47 533.4 606.74 583.76 589.52C612.35 579.75 645.56 566.73 675.16 544.27C677.41 542.56 678.34 539.61 677.49 536.93C672.79 522.16 667.23 508.34 660.97 495.84C655.36 484.63 648.72 473.3 641.24 462.13C641.4 461.8 641.53 461.45 641.63 461.1C645.81 446.36 658.55 401.51 629.23 381.61C620.44 375.64 609.77 372.74 596.62 372.74C587.01 372.74 575.92 374.37 563.64 377.58C563.45 377.63 563.26 377.69 563.07 377.76C562.04 377.02 560.42 375.85 558.91 374.74C577.37 370.04 595.74 362.81 607.16 344.08C621.02 321.35 609.74 292.33 591.33 278.47L590.95 278.18C588.01 275.95 585.59 274.27 583.42 272.93C590.13 267.09 597.59 260.16 604.12 252.16C623.17 228.79 624.31 210.32 621.91 198.94C619.53 187.65 612.96 178.52 602.9 172.54C594.99 167.83 584.96 165.24 574.65 165.24C574.04 165.24 573.42 165.24 572.81 165.27C572.41 165.28 571.89 165.28 571.27 165.29C570.51 165.29 569.66 165.3 568.76 165.32C578.62 144.69 588.54 116.17 572.72 94.46C563.27 81.49 549.05 73.4 531.61 71.07C528.28 70.62 524.84 70.4 521.4 70.4C509.97 70.4 498.33 72.87 487.67 77.56C466.76 62.33 448.37 55.87 442.21 53.98C417.61 18.15 391.87 0 365.72 0Z" fill="black"/>
</g>
<defs>
<clipPath id="clip0_1_211">
<rect width="677.82" height="615.45" fill="white"/>
</clipPath>
</defs>
</svg>
