<svg width="49" height="62" viewBox="0 0 49 62" fill="none" xmlns="http://www.w3.org/2000/svg">
<path d="M45.9 33.4C34.1 33.4 24.5 45 24.4 59.3C24.4 45 14.8 33.5 3.09998 33.4C14.9 33.3 24.4 21.6 24.4 7.29996C24.4 -7.00004 24.4 7.19995 24.4 7.09995C24.4 7.09995 24.4 7.19996 24.4 7.29996C24.4 21.7 34 33.4 45.9 33.4Z" fill="#F9C456"/>
<path d="M24.4 7.29996C24.4 21.6 14.9 33.3 3.09998 33.4C14.8 33.5 24.4 45 24.4 59.3C24.5 45 34.1 33.4 45.9 33.4C34 33.4 24.4 21.7 24.4 7.29996ZM24.4 7.29996C24.4 -7.00004 24.4 7.19995 24.4 7.09995C24.4 7.09995 24.4 7.19996 24.4 7.29996Z" stroke="#151011" stroke-width="4.4" stroke-linecap="round" stroke-linejoin="round"/>
</svg>
